<?xml version="1.0" encoding="utf-8"?>
<svg width="396" height="396" viewBox="0 0 396 396" xmlns="http://www.w3.org/2000/svg" xmlns:xlink="http://www.w3.org/1999/xlink">
    <rect width="396" height="396" fill="#ffffff"/>
    <defs>
        <rect id="p" width="12" height="12"/>
    </defs>
    <g>
        <use x="24" y="24" xlink:href="#p" fill="#000000"/>
        <use x="36" y="24" xlink:href="#p" fill="#000000"/>
        <use x="48" y="24" xlink:href="#p" fill="#000000"/>
        <use x="60" y="24" xlink:href="#p" fill="#000000"/>
        <use x="72" y="24" xlink:href="#p" fill="#000000"/>
        <use x="84" y="24" xlink:href="#p" fill="#000000"/>
        <use x="96" y="24" xlink:href="#p" fill="#000000"/>
        <use x="120" y="24" xlink:href="#p" fill="#000000"/>
        <use x="132" y="24" xlink:href="#p" fill="#000000"/>
        <use x="168" y="24" xlink:href="#p" fill="#000000"/>
        <use x="180" y="24" xlink:href="#p" fill="#000000"/>
        <use x="240" y="24" xlink:href="#p" fill="#000000"/>
        <use x="288" y="24" xlink:href="#p" fill="#000000"/>
        <use x="300" y="24" xlink:href="#p" fill="#000000"/>
        <use x="312" y="24" xlink:href="#p" fill="#000000"/>
        <use x="324" y="24" xlink:href="#p" fill="#000000"/>
        <use x="336" y="24" xlink:href="#p" fill="#000000"/>
        <use x="348" y="24" xlink:href="#p" fill="#000000"/>
        <use x="360" y="24" xlink:href="#p" fill="#000000"/>
        <use x="24" y="36" xlink:href="#p" fill="#000000"/>
        <use x="96" y="36" xlink:href="#p" fill="#000000"/>
        <use x="120" y="36" xlink:href="#p" fill="#000000"/>
        <use x="132" y="36" xlink:href="#p" fill="#000000"/>
        <use x="228" y="36" xlink:href="#p" fill="#000000"/>
        <use x="288" y="36" xlink:href="#p" fill="#000000"/>
        <use x="360" y="36" xlink:href="#p" fill="#000000"/>
        <use x="24" y="48" xlink:href="#p" fill="#000000"/>
        <use x="48" y="48" xlink:href="#p" fill="#000000"/>
        <use x="60" y="48" xlink:href="#p" fill="#000000"/>
        <use x="72" y="48" xlink:href="#p" fill="#000000"/>
        <use x="96" y="48" xlink:href="#p" fill="#000000"/>
        <use x="120" y="48" xlink:href="#p" fill="#000000"/>
        <use x="144" y="48" xlink:href="#p" fill="#000000"/>
        <use x="168" y="48" xlink:href="#p" fill="#000000"/>
        <use x="192" y="48" xlink:href="#p" fill="#000000"/>
        <use x="252" y="48" xlink:href="#p" fill="#000000"/>
        <use x="288" y="48" xlink:href="#p" fill="#000000"/>
        <use x="312" y="48" xlink:href="#p" fill="#000000"/>
        <use x="324" y="48" xlink:href="#p" fill="#000000"/>
        <use x="336" y="48" xlink:href="#p" fill="#000000"/>
        <use x="360" y="48" xlink:href="#p" fill="#000000"/>
        <use x="24" y="60" xlink:href="#p" fill="#000000"/>
        <use x="48" y="60" xlink:href="#p" fill="#000000"/>
        <use x="60" y="60" xlink:href="#p" fill="#000000"/>
        <use x="72" y="60" xlink:href="#p" fill="#000000"/>
        <use x="96" y="60" xlink:href="#p" fill="#000000"/>
        <use x="120" y="60" xlink:href="#p" fill="#000000"/>
        <use x="144" y="60" xlink:href="#p" fill="#000000"/>
        <use x="180" y="60" xlink:href="#p" fill="#000000"/>
        <use x="192" y="60" xlink:href="#p" fill="#000000"/>
        <use x="216" y="60" xlink:href="#p" fill="#000000"/>
        <use x="240" y="60" xlink:href="#p" fill="#000000"/>
        <use x="288" y="60" xlink:href="#p" fill="#000000"/>
        <use x="312" y="60" xlink:href="#p" fill="#000000"/>
        <use x="324" y="60" xlink:href="#p" fill="#000000"/>
        <use x="336" y="60" xlink:href="#p" fill="#000000"/>
        <use x="360" y="60" xlink:href="#p" fill="#000000"/>
        <use x="24" y="72" xlink:href="#p" fill="#000000"/>
        <use x="48" y="72" xlink:href="#p" fill="#000000"/>
        <use x="60" y="72" xlink:href="#p" fill="#000000"/>
        <use x="72" y="72" xlink:href="#p" fill="#000000"/>
        <use x="96" y="72" xlink:href="#p" fill="#000000"/>
        <use x="120" y="72" xlink:href="#p" fill="#000000"/>
        <use x="144" y="72" xlink:href="#p" fill="#000000"/>
        <use x="156" y="72" xlink:href="#p" fill="#000000"/>
        <use x="168" y="72" xlink:href="#p" fill="#000000"/>
        <use x="204" y="72" xlink:href="#p" fill="#000000"/>
        <use x="240" y="72" xlink:href="#p" fill="#000000"/>
        <use x="252" y="72" xlink:href="#p" fill="#000000"/>
        <use x="288" y="72" xlink:href="#p" fill="#000000"/>
        <use x="312" y="72" xlink:href="#p" fill="#000000"/>
        <use x="324" y="72" xlink:href="#p" fill="#000000"/>
        <use x="336" y="72" xlink:href="#p" fill="#000000"/>
        <use x="360" y="72" xlink:href="#p" fill="#000000"/>
        <use x="24" y="84" xlink:href="#p" fill="#000000"/>
        <use x="96" y="84" xlink:href="#p" fill="#000000"/>
        <use x="132" y="84" xlink:href="#p" fill="#000000"/>
        <use x="144" y="84" xlink:href="#p" fill="#000000"/>
        <use x="192" y="84" xlink:href="#p" fill="#000000"/>
        <use x="228" y="84" xlink:href="#p" fill="#000000"/>
        <use x="252" y="84" xlink:href="#p" fill="#000000"/>
        <use x="288" y="84" xlink:href="#p" fill="#000000"/>
        <use x="360" y="84" xlink:href="#p" fill="#000000"/>
        <use x="24" y="96" xlink:href="#p" fill="#000000"/>
        <use x="36" y="96" xlink:href="#p" fill="#000000"/>
        <use x="48" y="96" xlink:href="#p" fill="#000000"/>
        <use x="60" y="96" xlink:href="#p" fill="#000000"/>
        <use x="72" y="96" xlink:href="#p" fill="#000000"/>
        <use x="84" y="96" xlink:href="#p" fill="#000000"/>
        <use x="96" y="96" xlink:href="#p" fill="#000000"/>
        <use x="120" y="96" xlink:href="#p" fill="#000000"/>
        <use x="144" y="96" xlink:href="#p" fill="#000000"/>
        <use x="168" y="96" xlink:href="#p" fill="#000000"/>
        <use x="192" y="96" xlink:href="#p" fill="#000000"/>
        <use x="216" y="96" xlink:href="#p" fill="#000000"/>
        <use x="240" y="96" xlink:href="#p" fill="#000000"/>
        <use x="264" y="96" xlink:href="#p" fill="#000000"/>
        <use x="288" y="96" xlink:href="#p" fill="#000000"/>
        <use x="300" y="96" xlink:href="#p" fill="#000000"/>
        <use x="312" y="96" xlink:href="#p" fill="#000000"/>
        <use x="324" y="96" xlink:href="#p" fill="#000000"/>
        <use x="336" y="96" xlink:href="#p" fill="#000000"/>
        <use x="348" y="96" xlink:href="#p" fill="#000000"/>
        <use x="360" y="96" xlink:href="#p" fill="#000000"/>
        <use x="120" y="108" xlink:href="#p" fill="#000000"/>
        <use x="156" y="108" xlink:href="#p" fill="#000000"/>
        <use x="228" y="108" xlink:href="#p" fill="#000000"/>
        <use x="240" y="108" xlink:href="#p" fill="#000000"/>
        <use x="36" y="120" xlink:href="#p" fill="#000000"/>
        <use x="48" y="120" xlink:href="#p" fill="#000000"/>
        <use x="72" y="120" xlink:href="#p" fill="#000000"/>
        <use x="96" y="120" xlink:href="#p" fill="#000000"/>
        <use x="108" y="120" xlink:href="#p" fill="#000000"/>
        <use x="156" y="120" xlink:href="#p" fill="#000000"/>
        <use x="180" y="120" xlink:href="#p" fill="#000000"/>
        <use x="192" y="120" xlink:href="#p" fill="#000000"/>
        <use x="240" y="120" xlink:href="#p" fill="#000000"/>
        <use x="288" y="120" xlink:href="#p" fill="#000000"/>
        <use x="312" y="120" xlink:href="#p" fill="#000000"/>
        <use x="324" y="120" xlink:href="#p" fill="#000000"/>
        <use x="336" y="120" xlink:href="#p" fill="#000000"/>
        <use x="348" y="120" xlink:href="#p" fill="#000000"/>
        <use x="360" y="120" xlink:href="#p" fill="#000000"/>
        <use x="24" y="132" xlink:href="#p" fill="#000000"/>
        <use x="48" y="132" xlink:href="#p" fill="#000000"/>
        <use x="72" y="132" xlink:href="#p" fill="#000000"/>
        <use x="84" y="132" xlink:href="#p" fill="#000000"/>
        <use x="132" y="132" xlink:href="#p" fill="#000000"/>
        <use x="144" y="132" xlink:href="#p" fill="#000000"/>
        <use x="168" y="132" xlink:href="#p" fill="#000000"/>
        <use x="240" y="132" xlink:href="#p" fill="#000000"/>
        <use x="252" y="132" xlink:href="#p" fill="#000000"/>
        <use x="276" y="132" xlink:href="#p" fill="#000000"/>
        <use x="288" y="132" xlink:href="#p" fill="#000000"/>
        <use x="324" y="132" xlink:href="#p" fill="#000000"/>
        <use x="360" y="132" xlink:href="#p" fill="#000000"/>
        <use x="36" y="144" xlink:href="#p" fill="#000000"/>
        <use x="96" y="144" xlink:href="#p" fill="#000000"/>
        <use x="108" y="144" xlink:href="#p" fill="#000000"/>
        <use x="156" y="144" xlink:href="#p" fill="#000000"/>
        <use x="192" y="144" xlink:href="#p" fill="#000000"/>
        <use x="216" y="144" xlink:href="#p" fill="#000000"/>
        <use x="240" y="144" xlink:href="#p" fill="#000000"/>
        <use x="348" y="144" xlink:href="#p" fill="#000000"/>
        <use x="360" y="144" xlink:href="#p" fill="#000000"/>
        <use x="24" y="156" xlink:href="#p" fill="#000000"/>
        <use x="36" y="156" xlink:href="#p" fill="#000000"/>
        <use x="60" y="156" xlink:href="#p" fill="#000000"/>
        <use x="108" y="156" xlink:href="#p" fill="#000000"/>
        <use x="120" y="156" xlink:href="#p" fill="#000000"/>
        <use x="168" y="156" xlink:href="#p" fill="#000000"/>
        <use x="204" y="156" xlink:href="#p" fill="#000000"/>
        <use x="216" y="156" xlink:href="#p" fill="#000000"/>
        <use x="228" y="156" xlink:href="#p" fill="#000000"/>
        <use x="240" y="156" xlink:href="#p" fill="#000000"/>
        <use x="252" y="156" xlink:href="#p" fill="#000000"/>
        <use x="276" y="156" xlink:href="#p" fill="#000000"/>
        <use x="288" y="156" xlink:href="#p" fill="#000000"/>
        <use x="300" y="156" xlink:href="#p" fill="#000000"/>
        <use x="348" y="156" xlink:href="#p" fill="#000000"/>
        <use x="36" y="168" xlink:href="#p" fill="#000000"/>
        <use x="60" y="168" xlink:href="#p" fill="#000000"/>
        <use x="96" y="168" xlink:href="#p" fill="#000000"/>
        <use x="108" y="168" xlink:href="#p" fill="#000000"/>
        <use x="120" y="168" xlink:href="#p" fill="#000000"/>
        <use x="132" y="168" xlink:href="#p" fill="#000000"/>
        <use x="144" y="168" xlink:href="#p" fill="#000000"/>
        <use x="156" y="168" xlink:href="#p" fill="#000000"/>
        <use x="192" y="168" xlink:href="#p" fill="#000000"/>
        <use x="228" y="168" xlink:href="#p" fill="#000000"/>
        <use x="288" y="168" xlink:href="#p" fill="#000000"/>
        <use x="300" y="168" xlink:href="#p" fill="#000000"/>
        <use x="324" y="168" xlink:href="#p" fill="#000000"/>
        <use x="24" y="180" xlink:href="#p" fill="#000000"/>
        <use x="36" y="180" xlink:href="#p" fill="#000000"/>
        <use x="72" y="180" xlink:href="#p" fill="#000000"/>
        <use x="108" y="180" xlink:href="#p" fill="#000000"/>
        <use x="120" y="180" xlink:href="#p" fill="#000000"/>
        <use x="144" y="180" xlink:href="#p" fill="#000000"/>
        <use x="168" y="180" xlink:href="#p" fill="#000000"/>
        <use x="180" y="180" xlink:href="#p" fill="#000000"/>
        <use x="264" y="180" xlink:href="#p" fill="#000000"/>
        <use x="276" y="180" xlink:href="#p" fill="#000000"/>
        <use x="288" y="180" xlink:href="#p" fill="#000000"/>
        <use x="300" y="180" xlink:href="#p" fill="#000000"/>
        <use x="360" y="180" xlink:href="#p" fill="#000000"/>
        <use x="36" y="192" xlink:href="#p" fill="#000000"/>
        <use x="60" y="192" xlink:href="#p" fill="#000000"/>
        <use x="84" y="192" xlink:href="#p" fill="#000000"/>
        <use x="96" y="192" xlink:href="#p" fill="#000000"/>
        <use x="108" y="192" xlink:href="#p" fill="#000000"/>
        <use x="120" y="192" xlink:href="#p" fill="#000000"/>
        <use x="168" y="192" xlink:href="#p" fill="#000000"/>
        <use x="180" y="192" xlink:href="#p" fill="#000000"/>
        <use x="228" y="192" xlink:href="#p" fill="#000000"/>
        <use x="276" y="192" xlink:href="#p" fill="#000000"/>
        <use x="288" y="192" xlink:href="#p" fill="#000000"/>
        <use x="300" y="192" xlink:href="#p" fill="#000000"/>
        <use x="336" y="192" xlink:href="#p" fill="#000000"/>
        <use x="348" y="192" xlink:href="#p" fill="#000000"/>
        <use x="360" y="192" xlink:href="#p" fill="#000000"/>
        <use x="36" y="204" xlink:href="#p" fill="#000000"/>
        <use x="48" y="204" xlink:href="#p" fill="#000000"/>
        <use x="84" y="204" xlink:href="#p" fill="#000000"/>
        <use x="108" y="204" xlink:href="#p" fill="#000000"/>
        <use x="120" y="204" xlink:href="#p" fill="#000000"/>
        <use x="144" y="204" xlink:href="#p" fill="#000000"/>
        <use x="156" y="204" xlink:href="#p" fill="#000000"/>
        <use x="180" y="204" xlink:href="#p" fill="#000000"/>
        <use x="192" y="204" xlink:href="#p" fill="#000000"/>
        <use x="264" y="204" xlink:href="#p" fill="#000000"/>
        <use x="288" y="204" xlink:href="#p" fill="#000000"/>
        <use x="300" y="204" xlink:href="#p" fill="#000000"/>
        <use x="360" y="204" xlink:href="#p" fill="#000000"/>
        <use x="24" y="216" xlink:href="#p" fill="#000000"/>
        <use x="36" y="216" xlink:href="#p" fill="#000000"/>
        <use x="84" y="216" xlink:href="#p" fill="#000000"/>
        <use x="96" y="216" xlink:href="#p" fill="#000000"/>
        <use x="108" y="216" xlink:href="#p" fill="#000000"/>
        <use x="156" y="216" xlink:href="#p" fill="#000000"/>
        <use x="180" y="216" xlink:href="#p" fill="#000000"/>
        <use x="204" y="216" xlink:href="#p" fill="#000000"/>
        <use x="264" y="216" xlink:href="#p" fill="#000000"/>
        <use x="288" y="216" xlink:href="#p" fill="#000000"/>
        <use x="300" y="216" xlink:href="#p" fill="#000000"/>
        <use x="324" y="216" xlink:href="#p" fill="#000000"/>
        <use x="348" y="216" xlink:href="#p" fill="#000000"/>
        <use x="36" y="228" xlink:href="#p" fill="#000000"/>
        <use x="48" y="228" xlink:href="#p" fill="#000000"/>
        <use x="72" y="228" xlink:href="#p" fill="#000000"/>
        <use x="84" y="228" xlink:href="#p" fill="#000000"/>
        <use x="108" y="228" xlink:href="#p" fill="#000000"/>
        <use x="144" y="228" xlink:href="#p" fill="#000000"/>
        <use x="156" y="228" xlink:href="#p" fill="#000000"/>
        <use x="168" y="228" xlink:href="#p" fill="#000000"/>
        <use x="192" y="228" xlink:href="#p" fill="#000000"/>
        <use x="204" y="228" xlink:href="#p" fill="#000000"/>
        <use x="252" y="228" xlink:href="#p" fill="#000000"/>
        <use x="264" y="228" xlink:href="#p" fill="#000000"/>
        <use x="276" y="228" xlink:href="#p" fill="#000000"/>
        <use x="288" y="228" xlink:href="#p" fill="#000000"/>
        <use x="324" y="228" xlink:href="#p" fill="#000000"/>
        <use x="336" y="228" xlink:href="#p" fill="#000000"/>
        <use x="348" y="228" xlink:href="#p" fill="#000000"/>
        <use x="360" y="228" xlink:href="#p" fill="#000000"/>
        <use x="24" y="240" xlink:href="#p" fill="#000000"/>
        <use x="60" y="240" xlink:href="#p" fill="#000000"/>
        <use x="84" y="240" xlink:href="#p" fill="#000000"/>
        <use x="96" y="240" xlink:href="#p" fill="#000000"/>
        <use x="108" y="240" xlink:href="#p" fill="#000000"/>
        <use x="120" y="240" xlink:href="#p" fill="#000000"/>
        <use x="144" y="240" xlink:href="#p" fill="#000000"/>
        <use x="156" y="240" xlink:href="#p" fill="#000000"/>
        <use x="180" y="240" xlink:href="#p" fill="#000000"/>
        <use x="192" y="240" xlink:href="#p" fill="#000000"/>
        <use x="228" y="240" xlink:href="#p" fill="#000000"/>
        <use x="252" y="240" xlink:href="#p" fill="#000000"/>
        <use x="264" y="240" xlink:href="#p" fill="#000000"/>
        <use x="276" y="240" xlink:href="#p" fill="#000000"/>
        <use x="300" y="240" xlink:href="#p" fill="#000000"/>
        <use x="324" y="240" xlink:href="#p" fill="#000000"/>
        <use x="336" y="240" xlink:href="#p" fill="#000000"/>
        <use x="348" y="240" xlink:href="#p" fill="#000000"/>
        <use x="360" y="240" xlink:href="#p" fill="#000000"/>
        <use x="36" y="252" xlink:href="#p" fill="#000000"/>
        <use x="72" y="252" xlink:href="#p" fill="#000000"/>
        <use x="132" y="252" xlink:href="#p" fill="#000000"/>
        <use x="144" y="252" xlink:href="#p" fill="#000000"/>
        <use x="156" y="252" xlink:href="#p" fill="#000000"/>
        <use x="180" y="252" xlink:href="#p" fill="#000000"/>
        <use x="192" y="252" xlink:href="#p" fill="#000000"/>
        <use x="204" y="252" xlink:href="#p" fill="#000000"/>
        <use x="228" y="252" xlink:href="#p" fill="#000000"/>
        <use x="264" y="252" xlink:href="#p" fill="#000000"/>
        <use x="288" y="252" xlink:href="#p" fill="#000000"/>
        <use x="312" y="252" xlink:href="#p" fill="#000000"/>
        <use x="324" y="252" xlink:href="#p" fill="#000000"/>
        <use x="348" y="252" xlink:href="#p" fill="#000000"/>
        <use x="24" y="264" xlink:href="#p" fill="#000000"/>
        <use x="96" y="264" xlink:href="#p" fill="#000000"/>
        <use x="108" y="264" xlink:href="#p" fill="#000000"/>
        <use x="132" y="264" xlink:href="#p" fill="#000000"/>
        <use x="144" y="264" xlink:href="#p" fill="#000000"/>
        <use x="216" y="264" xlink:href="#p" fill="#000000"/>
        <use x="228" y="264" xlink:href="#p" fill="#000000"/>
        <use x="252" y="264" xlink:href="#p" fill="#000000"/>
        <use x="264" y="264" xlink:href="#p" fill="#000000"/>
        <use x="276" y="264" xlink:href="#p" fill="#000000"/>
        <use x="288" y="264" xlink:href="#p" fill="#000000"/>
        <use x="300" y="264" xlink:href="#p" fill="#000000"/>
        <use x="312" y="264" xlink:href="#p" fill="#000000"/>
        <use x="120" y="276" xlink:href="#p" fill="#000000"/>
        <use x="132" y="276" xlink:href="#p" fill="#000000"/>
        <use x="216" y="276" xlink:href="#p" fill="#000000"/>
        <use x="228" y="276" xlink:href="#p" fill="#000000"/>
        <use x="252" y="276" xlink:href="#p" fill="#000000"/>
        <use x="264" y="276" xlink:href="#p" fill="#000000"/>
        <use x="312" y="276" xlink:href="#p" fill="#000000"/>
        <use x="348" y="276" xlink:href="#p" fill="#000000"/>
        <use x="360" y="276" xlink:href="#p" fill="#000000"/>
        <use x="24" y="288" xlink:href="#p" fill="#000000"/>
        <use x="36" y="288" xlink:href="#p" fill="#000000"/>
        <use x="48" y="288" xlink:href="#p" fill="#000000"/>
        <use x="60" y="288" xlink:href="#p" fill="#000000"/>
        <use x="72" y="288" xlink:href="#p" fill="#000000"/>
        <use x="84" y="288" xlink:href="#p" fill="#000000"/>
        <use x="96" y="288" xlink:href="#p" fill="#000000"/>
        <use x="120" y="288" xlink:href="#p" fill="#000000"/>
        <use x="180" y="288" xlink:href="#p" fill="#000000"/>
        <use x="192" y="288" xlink:href="#p" fill="#000000"/>
        <use x="240" y="288" xlink:href="#p" fill="#000000"/>
        <use x="252" y="288" xlink:href="#p" fill="#000000"/>
        <use x="264" y="288" xlink:href="#p" fill="#000000"/>
        <use x="288" y="288" xlink:href="#p" fill="#000000"/>
        <use x="312" y="288" xlink:href="#p" fill="#000000"/>
        <use x="336" y="288" xlink:href="#p" fill="#000000"/>
        <use x="348" y="288" xlink:href="#p" fill="#000000"/>
        <use x="360" y="288" xlink:href="#p" fill="#000000"/>
        <use x="24" y="300" xlink:href="#p" fill="#000000"/>
        <use x="96" y="300" xlink:href="#p" fill="#000000"/>
        <use x="132" y="300" xlink:href="#p" fill="#000000"/>
        <use x="156" y="300" xlink:href="#p" fill="#000000"/>
        <use x="168" y="300" xlink:href="#p" fill="#000000"/>
        <use x="192" y="300" xlink:href="#p" fill="#000000"/>
        <use x="204" y="300" xlink:href="#p" fill="#000000"/>
        <use x="216" y="300" xlink:href="#p" fill="#000000"/>
        <use x="228" y="300" xlink:href="#p" fill="#000000"/>
        <use x="240" y="300" xlink:href="#p" fill="#000000"/>
        <use x="264" y="300" xlink:href="#p" fill="#000000"/>
        <use x="312" y="300" xlink:href="#p" fill="#000000"/>
        <use x="24" y="312" xlink:href="#p" fill="#000000"/>
        <use x="48" y="312" xlink:href="#p" fill="#000000"/>
        <use x="60" y="312" xlink:href="#p" fill="#000000"/>
        <use x="72" y="312" xlink:href="#p" fill="#000000"/>
        <use x="96" y="312" xlink:href="#p" fill="#000000"/>
        <use x="120" y="312" xlink:href="#p" fill="#000000"/>
        <use x="168" y="312" xlink:href="#p" fill="#000000"/>
        <use x="180" y="312" xlink:href="#p" fill="#000000"/>
        <use x="216" y="312" xlink:href="#p" fill="#000000"/>
        <use x="240" y="312" xlink:href="#p" fill="#000000"/>
        <use x="264" y="312" xlink:href="#p" fill="#000000"/>
        <use x="276" y="312" xlink:href="#p" fill="#000000"/>
        <use x="288" y="312" xlink:href="#p" fill="#000000"/>
        <use x="300" y="312" xlink:href="#p" fill="#000000"/>
        <use x="312" y="312" xlink:href="#p" fill="#000000"/>
        <use x="324" y="312" xlink:href="#p" fill="#000000"/>
        <use x="348" y="312" xlink:href="#p" fill="#000000"/>
        <use x="24" y="324" xlink:href="#p" fill="#000000"/>
        <use x="48" y="324" xlink:href="#p" fill="#000000"/>
        <use x="60" y="324" xlink:href="#p" fill="#000000"/>
        <use x="72" y="324" xlink:href="#p" fill="#000000"/>
        <use x="96" y="324" xlink:href="#p" fill="#000000"/>
        <use x="132" y="324" xlink:href="#p" fill="#000000"/>
        <use x="144" y="324" xlink:href="#p" fill="#000000"/>
        <use x="204" y="324" xlink:href="#p" fill="#000000"/>
        <use x="216" y="324" xlink:href="#p" fill="#000000"/>
        <use x="240" y="324" xlink:href="#p" fill="#000000"/>
        <use x="264" y="324" xlink:href="#p" fill="#000000"/>
        <use x="276" y="324" xlink:href="#p" fill="#000000"/>
        <use x="312" y="324" xlink:href="#p" fill="#000000"/>
        <use x="336" y="324" xlink:href="#p" fill="#000000"/>
        <use x="24" y="336" xlink:href="#p" fill="#000000"/>
        <use x="48" y="336" xlink:href="#p" fill="#000000"/>
        <use x="60" y="336" xlink:href="#p" fill="#000000"/>
        <use x="72" y="336" xlink:href="#p" fill="#000000"/>
        <use x="96" y="336" xlink:href="#p" fill="#000000"/>
        <use x="120" y="336" xlink:href="#p" fill="#000000"/>
        <use x="132" y="336" xlink:href="#p" fill="#000000"/>
        <use x="192" y="336" xlink:href="#p" fill="#000000"/>
        <use x="204" y="336" xlink:href="#p" fill="#000000"/>
        <use x="216" y="336" xlink:href="#p" fill="#000000"/>
        <use x="252" y="336" xlink:href="#p" fill="#000000"/>
        <use x="300" y="336" xlink:href="#p" fill="#000000"/>
        <use x="312" y="336" xlink:href="#p" fill="#000000"/>
        <use x="360" y="336" xlink:href="#p" fill="#000000"/>
        <use x="24" y="348" xlink:href="#p" fill="#000000"/>
        <use x="96" y="348" xlink:href="#p" fill="#000000"/>
        <use x="120" y="348" xlink:href="#p" fill="#000000"/>
        <use x="144" y="348" xlink:href="#p" fill="#000000"/>
        <use x="156" y="348" xlink:href="#p" fill="#000000"/>
        <use x="216" y="348" xlink:href="#p" fill="#000000"/>
        <use x="228" y="348" xlink:href="#p" fill="#000000"/>
        <use x="240" y="348" xlink:href="#p" fill="#000000"/>
        <use x="252" y="348" xlink:href="#p" fill="#000000"/>
        <use x="288" y="348" xlink:href="#p" fill="#000000"/>
        <use x="300" y="348" xlink:href="#p" fill="#000000"/>
        <use x="348" y="348" xlink:href="#p" fill="#000000"/>
        <use x="24" y="360" xlink:href="#p" fill="#000000"/>
        <use x="36" y="360" xlink:href="#p" fill="#000000"/>
        <use x="48" y="360" xlink:href="#p" fill="#000000"/>
        <use x="60" y="360" xlink:href="#p" fill="#000000"/>
        <use x="72" y="360" xlink:href="#p" fill="#000000"/>
        <use x="84" y="360" xlink:href="#p" fill="#000000"/>
        <use x="96" y="360" xlink:href="#p" fill="#000000"/>
        <use x="144" y="360" xlink:href="#p" fill="#000000"/>
        <use x="156" y="360" xlink:href="#p" fill="#000000"/>
        <use x="168" y="360" xlink:href="#p" fill="#000000"/>
        <use x="180" y="360" xlink:href="#p" fill="#000000"/>
        <use x="204" y="360" xlink:href="#p" fill="#000000"/>
        <use x="216" y="360" xlink:href="#p" fill="#000000"/>
        <use x="228" y="360" xlink:href="#p" fill="#000000"/>
        <use x="264" y="360" xlink:href="#p" fill="#000000"/>
        <use x="276" y="360" xlink:href="#p" fill="#000000"/>
        <use x="312" y="360" xlink:href="#p" fill="#000000"/>
        <use x="348" y="360" xlink:href="#p" fill="#000000"/>
        <use x="360" y="360" xlink:href="#p" fill="#000000"/>
    </g>
</svg>